{"asset":{"version":"2.0","generator":"Blockbench 4.11.2 glTF exporter"},"scenes":[{"nodes":[14],"name":"blockbench_export"}],"scene":0,"nodes":[{"name":"base","mesh":0},{"name":"cube","mesh":1},{"rotation":[-0.3826834323650898,0,0,0.9238795325112867],"translation":[0,0.0918543696318806,0.013729369631880595],"name":"cube","mesh":2},{"rotation":[-0.3007057995042731,0,0,0.9537169507482269],"translation":[0.0006249994039535522,0.27897268260430713,-0.33534061774809326],"name":"cube","mesh":3},{"rotation":[-0.46174861323503386,0,0,0.8870108331782217],"translation":[0,0.2189404692911044,-0.24358751436379134],"name":"cube","mesh":4},{"rotation":[-0.625923472184059,0,0,0.7798844830928818],"translation":[0.00006249919533729553,0.16771285689007692,-0.05165895191748899],"name":"cube","mesh":5},{"rotation":[-0.13052619222005157,0,0,0.9914448613738104],"translation":[-0.0006249994039535522,0.4495255498944817,-0.4432103910585683],"name":"cube","mesh":6},{"rotation":[-0.043619387365336,0,0,0.9990482215818578],"translation":[0.0006249994039535522,0.5631034435162773,-0.4756748479598627],"name":"cube","mesh":7},{"rotation":[0.043619387365336,0,0,0.9990482215818578],"translation":[-0.0006249994039535522,0.7117243118210408,-0.4824915120828608],"name":"cube","mesh":8},{"rotation":[-0.7518398074789773,0,0,0.659345815100069],"translation":[0.0006249994039535522,0.19227191344622685,0.1505009791195859],"name":"cube","mesh":9},{"rotation":[-0.8191520442889917,0,0,0.5735764363510462],"translation":[-0.0006249994039535522,0.23012174100471966,0.22781321572616126],"name":"cube","mesh":10},{"rotation":[0.3007057995042731,0,0,0.9537169507482269],"translation":[0.0006249994039535522,0.814801865829445,-0.48103221624692877],"name":"cube","mesh":11},{"rotation":[-0.3624380382837016,0,0,0.9320078692827986],"translation":[0,0.9375,-0.3125],"name":"cube","mesh":12},{"translation":[0,0.140625,0],"name":"stand","children":[1,2,3,4,5,6,7,8,9,10,11,12]},{"children":[0,13]}],"bufferViews":[{"buffer":0,"byteOffset":0,"byteLength":7656,"target":34962,"byteStride":12},{"buffer":0,"byteOffset":7656,"byteLength":7656,"target":34962,"byteStride":12},{"buffer":0,"byteOffset":15312,"byteLength":5104,"target":34962,"byteStride":8},{"buffer":0,"byteOffset":20416,"byteLength":1740,"target":34963},{"buffer":0,"byteOffset":22156,"byteLength":288,"target":34962,"byteStride":12},{"buffer":0,"byteOffset":22444,"byteLength":288,"target":34962,"byteStride":12},{"buffer":0,"byteOffset":22732,"byteLength":192,"target":34962,"byteStride":8},{"buffer":0,"byteOffset":22924,"byteLength":72,"target":34963},{"buffer":0,"byteOffset":22996,"byteLength":288,"target":34962,"byteStride":12},{"buffer":0,"byteOffset":23284,"byteLength":288,"target":34962,"byteStride":12},{"buffer":0,"byteOffset":23572,"byteLength":192,"target":34962,"byteStride":8},{"buffer":0,"byteOffset":23764,"byteLength":72,"target":34963},{"buffer":0,"byteOffset":23836,"byteLength":288,"target":34962,"byteStride":12},{"buffer":0,"byteOffset":24124,"byteLength":288,"target":34962,"byteStride":12},{"buffer":0,"byteOffset":24412,"byteLength":192,"target":34962,"byteStride":8},{"buffer":0,"byteOffset":24604,"byteLength":72,"target":34963},{"buffer":0,"byteOffset":24676,"byteLength":288,"target":34962,"byteStride":12},{"buffer":0,"byteOffset":24964,"byteLength":288,"target":34962,"byteStride":12},{"buffer":0,"byteOffset":25252,"byteLength":192,"target":34962,"byteStride":8},{"buffer":0,"byteOffset":25444,"byteLength":72,"target":34963},{"buffer":0,"byteOffset":25516,"byteLength":288,"target":34962,"byteStride":12},{"buffer":0,"byteOffset":25804,"byteLength":288,"target":34962,"byteStride":12},{"buffer":0,"byteOffset":26092,"byteLength":192,"target":34962,"byteStride":8},{"buffer":0,"byteOffset":26284,"byteLength":72,"target":34963},{"buffer":0,"byteOffset":26356,"byteLength":288,"target":34962,"byteStride":12},{"buffer":0,"byteOffset":26644,"byteLength":288,"target":34962,"byteStride":12},{"buffer":0,"byteOffset":26932,"byteLength":192,"target":34962,"byteStride":8},{"buffer":0,"byteOffset":27124,"byteLength":72,"target":34963},{"buffer":0,"byteOffset":27196,"byteLength":288,"target":34962,"byteStride":12},{"buffer":0,"byteOffset":27484,"byteLength":288,"target":34962,"byteStride":12},{"buffer":0,"byteOffset":27772,"byteLength":192,"target":34962,"byteStride":8},{"buffer":0,"byteOffset":27964,"byteLength":72,"target":34963},{"buffer":0,"byteOffset":28036,"byteLength":288,"target":34962,"byteStride":12},{"buffer":0,"byteOffset":28324,"byteLength":288,"target":34962,"byteStride":12},{"buffer":0,"byteOffset":28612,"byteLength":192,"target":34962,"byteStride":8},{"buffer":0,"byteOffset":28804,"byteLength":72,"target":34963},{"buffer":0,"byteOffset":28876,"byteLength":288,"target":34962,"byteStride":12},{"buffer":0,"byteOffset":29164,"byteLength":288,"target":34962,"byteStride":12},{"buffer":0,"byteOffset":29452,"byteLength":192,"target":34962,"byteStride":8},{"buffer":0,"byteOffset":29644,"byteLength":72,"target":34963},{"buffer":0,"byteOffset":29716,"byteLength":288,"target":34962,"byteStride":12},{"buffer":0,"byteOffset":30004,"byteLength":288,"target":34962,"byteStride":12},{"buffer":0,"byteOffset":30292,"byteLength":192,"target":34962,"byteStride":8},{"buffer":0,"byteOffset":30484,"byteLength":72,"target":34963},{"buffer":0,"byteOffset":30556,"byteLength":288,"target":34962,"byteStride":12},{"buffer":0,"byteOffset":30844,"byteLength":288,"target":34962,"byteStride":12},{"buffer":0,"byteOffset":31132,"byteLength":192,"target":34962,"byteStride":8},{"buffer":0,"byteOffset":31324,"byteLength":72,"target":34963},{"buffer":0,"byteOffset":31396,"byteLength":288,"target":34962,"byteStride":12},{"buffer":0,"byteOffset":31684,"byteLength":288,"target":34962,"byteStride":12},{"buffer":0,"byteOffset":31972,"byteLength":192,"target":34962,"byteStride":8},{"buffer":0,"byteOffset":32164,"byteLength":72,"target":34963}],"buffers":[{"byteLength":32236,"uri":"data:application/octet-stream;base64,"}],"accessors":[{"bufferView":0,"componentType":5126,"count":638,"max":[0.43971067667007446,0.1875,0.4375],"min":[-0.43971067667007446,0,-0.4404483139514923],"type":"VEC3"},{"bufferView":1,"componentType":5126,"count":638,"max":[0.9985342025756836,1,1],"min":[-0.9985342025756836,-1,-0.9941403865814209],"type":"VEC3"},{"bufferView":2,"componentType":5126,"count":638,"max":[0.5093333125114441,0.484375],"min":[0.00139999995008111,0],"type":"VEC2"},{"bufferView":3,"componentType":5123,"count":870,"max":[637],"min":[0],"type":"SCALAR"},{"bufferView":4,"componentType":5126,"count":24,"max":[0.046875,0.125,0.046875],"min":[-0.046875,0,-0.046875],"type":"VEC3"},{"bufferView":5,"componentType":5126,"count":24,"max":[1,1,1],"min":[-1,-1,-1],"type":"VEC3"},{"bufferView":6,"componentType":5126,"count":24,"max":[0.4921875,0.46875],"min":[0.265625,0.09375],"type":"VEC2"},{"bufferView":7,"componentType":5123,"count":36,"max":[23],"min":[0],"type":"SCALAR"},{"bufferView":8,"componentType":5126,"count":24,"max":[0.048124998807907104,0.1262499988079071,0.048124998807907104],"min":[-0.048124998807907104,-0.0012499999720603228,-0.048124998807907104],"type":"VEC3"},{"bufferView":9,"componentType":5126,"count":24,"max":[1,1,1],"min":[-1,-1,-1],"type":"VEC3"},{"bufferView":10,"componentType":5126,"count":24,"max":[0.4921875,0.46875],"min":[0.40625,0],"type":"VEC2"},{"bufferView":11,"componentType":5123,"count":36,"max":[23],"min":[0],"type":"SCALAR"},{"bufferView":12,"componentType":5126,"count":24,"max":[0.046875,0.1875,0.046875],"min":[-0.046875,5.551115123125783e-17,-0.046875],"type":"VEC3"},{"bufferView":13,"componentType":5126,"count":24,"max":[1,1,1],"min":[-1,-1,-1],"type":"VEC3"},{"bufferView":14,"componentType":5126,"count":24,"max":[0.4921875,0.4921875],"min":[0.015625,0],"type":"VEC2"},{"bufferView":15,"componentType":5123,"count":36,"max":[23],"min":[0],"type":"SCALAR"},{"bufferView":16,"componentType":5126,"count":24,"max":[0.048124998807907104,0.1262499988079071,0.048124998807907104],"min":[-0.048124998807907104,-0.032499998807907104,-0.048124998807907104],"type":"VEC3"},{"bufferView":17,"componentType":5126,"count":24,"max":[1,1,1],"min":[-1,-1,-1],"type":"VEC3"},{"bufferView":18,"componentType":5126,"count":24,"max":[0.4921875,0.4921875],"min":[0.375,0.25],"type":"VEC2"},{"bufferView":19,"componentType":5123,"count":36,"max":[23],"min":[0],"type":"SCALAR"},{"bufferView":20,"componentType":5126,"count":24,"max":[0.046875,0.1875,0.046875],"min":[-0.046875,0,-0.046875],"type":"VEC3"},{"bufferView":21,"componentType":5126,"count":24,"max":[1,1,1],"min":[-1,-1,-1],"type":"VEC3"},{"bufferView":22,"componentType":5126,"count":24,"max":[0.4921875,0.4609375],"min":[0.046875,0.390625],"type":"VEC2"},{"bufferView":23,"componentType":5123,"count":36,"max":[23],"min":[0],"type":"SCALAR"},{"bufferView":24,"componentType":5126,"count":24,"max":[0.048124998807907104,0.1262499988079071,0.048124998807907104],"min":[-0.048124998807907104,-0.032499998807907104,-0.048124998807907104],"type":"VEC3"},{"bufferView":25,"componentType":5126,"count":24,"max":[1,1,1],"min":[-1,-1,-1],"type":"VEC3"},{"bufferView":26,"componentType":5126,"count":24,"max":[0.5078125,0.4921875],"min":[0.015625,0],"type":"VEC2"},{"bufferView":27,"componentType":5123,"count":36,"max":[23],"min":[0],"type":"SCALAR"},{"bufferView":28,"componentType":5126,"count":24,"max":[0.046875,0.125,0.046875],"min":[-0.046875,1.1102230246251565e-16,-0.046875],"type":"VEC3"},{"bufferView":29,"componentType":5126,"count":24,"max":[1,1,1],"min":[-1,-1,-1],"type":"VEC3"},{"bufferView":30,"componentType":5126,"count":24,"max":[0.5078125,0.5078125],"min":[0.015625,0.03125],"type":"VEC2"},{"bufferView":31,"componentType":5123,"count":36,"max":[23],"min":[0],"type":"SCALAR"},{"bufferView":32,"componentType":5126,"count":24,"max":[0.048124998807907104,0.1262499988079071,0.048124998807907104],"min":[-0.048124998807907104,-0.032499998807907104,-0.048124998807907104],"type":"VEC3"},{"bufferView":33,"componentType":5126,"count":24,"max":[1,1,1],"min":[-1,-1,-1],"type":"VEC3"},{"bufferView":34,"componentType":5126,"count":24,"max":[0.5078125,0.5078125],"min":[0.046875,0.0625],"type":"VEC2"},{"bufferView":35,"componentType":5123,"count":36,"max":[23],"min":[0],"type":"SCALAR"},{"bufferView":36,"componentType":5126,"count":24,"max":[0.046875,0.1875,0.046875],"min":[-0.046875,0.03125,-0.046875],"type":"VEC3"},{"bufferView":37,"componentType":5126,"count":24,"max":[1,1,1],"min":[-1,-1,-1],"type":"VEC3"},{"bufferView":38,"componentType":5126,"count":24,"max":[0.4609375,0.5078125],"min":[0.078125,0.265625],"type":"VEC2"},{"bufferView":39,"componentType":5123,"count":36,"max":[23],"min":[0],"type":"SCALAR"},{"bufferView":40,"componentType":5126,"count":24,"max":[0.048124998807907104,0.13881313800811768,0.07002779841423035],"min":[-0.0481250025331974,-0.11109446734189987,-0.048124998807907104],"type":"VEC3"},{"bufferView":41,"componentType":5126,"count":24,"max":[0.9979276657104492,0.9914448857307434,0.9955986142158508],"min":[-0.9979276657104492,-0.9914448857307434,-0.975339412689209],"type":"VEC3"},{"bufferView":42,"componentType":5126,"count":24,"max":[0.39059776067733765,0.4367924928665161],"min":[0.0016907394165173173,0],"type":"VEC2"},{"bufferView":43,"componentType":5123,"count":36,"max":[23],"min":[0],"type":"SCALAR"},{"bufferView":44,"componentType":5126,"count":24,"max":[0.046875,0.24945713579654694,0.06445185095071793],"min":[-0.046875,-0.008170850574970245,-0.046875],"type":"VEC3"},{"bufferView":45,"componentType":5126,"count":24,"max":[0.9980950951576233,0.9961947202682495,0.9974809288978577],"min":[-0.9980950951576233,-0.9961947202682495,-0.9812010526657104],"type":"VEC3"},{"bufferView":46,"componentType":5126,"count":24,"max":[0.398436963558197,0.47265625],"min":[0,0],"type":"VEC2"},{"bufferView":47,"componentType":5123,"count":36,"max":[23],"min":[0],"type":"SCALAR"},{"bufferView":48,"componentType":5126,"count":24,"max":[0.015625,0.0625,0.015625],"min":[-0.015625,-0.875,-0.015625],"type":"VEC3"},{"bufferView":49,"componentType":5126,"count":24,"max":[1,1,1],"min":[-1,-1,-1],"type":"VEC3"},{"bufferView":50,"componentType":5126,"count":24,"max":[0.1953125,0.609375],"min":[0,0],"type":"VEC2"},{"bufferView":51,"componentType":5123,"count":36,"max":[23],"min":[0],"type":"SCALAR"}],"materials":[{"pbrMetallicRoughness":{"metallicFactor":0,"roughnessFactor":1,"baseColorTexture":{"index":0}},"alphaMode":"MASK","alphaCutoff":0.05,"doubleSided":true}],"textures":[{"sampler":0,"source":0,"name":"Globe_stand"}],"samplers":[{"magFilter":9728,"minFilter":9728,"wrapS":33071,"wrapT":33071}],"images":[{"mimeType":"image/png","name":"Globe_stand.png","uri":"Globe_stand.png"}],"meshes":[{"primitives":[{"mode":4,"attributes":{"POSITION":0,"NORMAL":1,"TEXCOORD_0":2},"indices":3,"material":0}]},{"primitives":[{"mode":4,"attributes":{"POSITION":4,"NORMAL":5,"TEXCOORD_0":6},"indices":7,"material":0}]},{"primitives":[{"mode":4,"attributes":{"POSITION":8,"NORMAL":9,"TEXCOORD_0":10},"indices":11,"material":0}]},{"primitives":[{"mode":4,"attributes":{"POSITION":12,"NORMAL":13,"TEXCOORD_0":14},"indices":15,"material":0}]},{"primitives":[{"mode":4,"attributes":{"POSITION":16,"NORMAL":17,"TEXCOORD_0":18},"indices":19,"material":0}]},{"primitives":[{"mode":4,"attributes":{"POSITION":20,"NORMAL":21,"TEXCOORD_0":22},"indices":23,"material":0}]},{"primitives":[{"mode":4,"attributes":{"POSITION":24,"NORMAL":25,"TEXCOORD_0":26},"indices":27,"material":0}]},{"primitives":[{"mode":4,"attributes":{"POSITION":28,"NORMAL":29,"TEXCOORD_0":30},"indices":31,"material":0}]},{"primitives":[{"mode":4,"attributes":{"POSITION":32,"NORMAL":33,"TEXCOORD_0":34},"indices":35,"material":0}]},{"primitives":[{"mode":4,"attributes":{"POSITION":36,"NORMAL":37,"TEXCOORD_0":38},"indices":39,"material":0}]},{"primitives":[{"mode":4,"attributes":{"POSITION":40,"NORMAL":41,"TEXCOORD_0":42},"indices":43,"material":0}]},{"primitives":[{"mode":4,"attributes":{"POSITION":44,"NORMAL":45,"TEXCOORD_0":46},"indices":47,"material":0}]},{"primitives":[{"mode":4,"attributes":{"POSITION":48,"NORMAL":49,"TEXCOORD_0":50},"indices":51,"material":0}]}]}