{"asset":{"version":"2.0","generator":"Blockbench 4.11.2 glTF exporter"},"scenes":[{"nodes":[6],"name":"blockbench_export"}],"scene":0,"nodes":[{"name":"cylinder","mesh":0},{"rotation":[0,0,0.7071067811865475,0.7071067811865476],"translation":[-0.11249999999999999,0.625,-0.18125],"name":"plane","mesh":1},{"rotation":[0,0,0.7071067811865475,0.7071067811865476],"translation":[-0.16249999999999998,0.4500000000000002,-0.07499999999999998],"name":"plane","mesh":2},{"translation":[0.1875,0.3125,-0.125],"name":"cuboid","mesh":3},{"translation":[0.25,0.4375,0.375],"name":"cuboid","mesh":4},{"rotation":[0.6842377527065144,-0.08274271730993654,0.3346302064700909,0.642646843469328],"translation":[0.09057270278767243,0.4514069774379162,-0.1247596265639532],"name":"plane","mesh":5},{"children":[0,1,2,3,4,5]}],"bufferViews":[{"buffer":0,"byteOffset":0,"byteLength":13680,"target":34962,"byteStride":12},{"buffer":0,"byteOffset":13680,"byteLength":13680,"target":34962,"byteStride":12},{"buffer":0,"byteOffset":27360,"byteLength":9120,"target":34962,"byteStride":8},{"buffer":0,"byteOffset":36480,"byteLength":3216,"target":34963},{"buffer":0,"byteOffset":39696,"byteLength":264,"target":34962,"byteStride":12},{"buffer":0,"byteOffset":39960,"byteLength":264,"target":34962,"byteStride":12},{"buffer":0,"byteOffset":40224,"byteLength":176,"target":34962,"byteStride":8},{"buffer":0,"byteOffset":40400,"byteLength":60,"target":34963},{"buffer":0,"byteOffset":40460,"byteLength":264,"target":34962,"byteStride":12},{"buffer":0,"byteOffset":40724,"byteLength":264,"target":34962,"byteStride":12},{"buffer":0,"byteOffset":40988,"byteLength":176,"target":34962,"byteStride":8},{"buffer":0,"byteOffset":41164,"byteLength":60,"target":34963},{"buffer":0,"byteOffset":41224,"byteLength":1248,"target":34962,"byteStride":12},{"buffer":0,"byteOffset":42472,"byteLength":1248,"target":34962,"byteStride":12},{"buffer":0,"byteOffset":43720,"byteLength":832,"target":34962,"byteStride":8},{"buffer":0,"byteOffset":44552,"byteLength":312,"target":34963},{"buffer":0,"byteOffset":44864,"byteLength":1824,"target":34962,"byteStride":12},{"buffer":0,"byteOffset":46688,"byteLength":1824,"target":34962,"byteStride":12},{"buffer":0,"byteOffset":48512,"byteLength":1216,"target":34962,"byteStride":8},{"buffer":0,"byteOffset":49728,"byteLength":456,"target":34963},{"buffer":0,"byteOffset":50184,"byteLength":264,"target":34962,"byteStride":12},{"buffer":0,"byteOffset":50448,"byteLength":264,"target":34962,"byteStride":12},{"buffer":0,"byteOffset":50712,"byteLength":176,"target":34962,"byteStride":8},{"buffer":0,"byteOffset":50888,"byteLength":60,"target":34963}],"buffers":[{"byteLength":50948,"uri":"data:application/octet-stream;base64,"}],"accessors":[{"bufferView":0,"componentType":5126,"count":1140,"max":[0.26831719279289246,0.6170356869697571,0.26831719279289246],"min":[-0.26831719279289246,0,-0.26831719279289246],"type":"VEC3"},{"bufferView":1,"componentType":5126,"count":1140,"max":[1,1,0.9999999403953552],"min":[-1,-1,-0.9999999403953552],"type":"VEC3"},{"bufferView":2,"componentType":5126,"count":1140,"max":[0.9233124852180481,0.7957403063774109],"min":[0,0],"type":"VEC2"},{"bufferView":3,"componentType":5123,"count":1608,"max":[1139],"min":[0],"type":"SCALAR"},{"bufferView":4,"componentType":5126,"count":22,"max":[-0.03125,-1.3877787807814457e-17,0.10625000298023224],"min":[-0.06875000149011612,-1.3877787807814457e-17,0.01875000074505806],"type":"VEC3"},{"bufferView":5,"componentType":5126,"count":22,"max":[0,1,0],"min":[0,-1,0],"type":"VEC3"},{"bufferView":6,"componentType":5126,"count":22,"max":[0.6156250238418579,0.46875],"min":[0.4124999940395355,0.34375],"type":"VEC2"},{"bufferView":7,"componentType":5123,"count":30,"max":[21],"min":[0],"type":"SCALAR"},{"bufferView":8,"componentType":5126,"count":22,"max":[0.01875000074505806,0.05009396746754646,-0.001662098104134202],"min":[-0.01875000074505806,-0.00009396908717462793,-0.07333790510892868],"type":"VEC3"},{"bufferView":9,"componentType":5126,"count":22,"max":[0,0.8191520571708679,0.5735764503479004],"min":[0,-0.8191520571708679,-0.5735764503479004],"type":"VEC3"},{"bufferView":10,"componentType":5126,"count":22,"max":[0.5843750238418579,0.5364593863487244],"min":[0.4124999940395355,0.02395939826965332],"type":"VEC2"},{"bufferView":11,"componentType":5123,"count":30,"max":[21],"min":[0],"type":"SCALAR"},{"bufferView":12,"componentType":5126,"count":104,"max":[0.012500000186264515,0.32670503854751587,0.16875000298023224],"min":[-0.1901182383298874,0.014906425960361958,-0.01866403967142105],"type":"VEC3"},{"bufferView":13,"componentType":5126,"count":104,"max":[0.9939132928848267,0.939505398273468,1],"min":[-0.9997826814651489,-0.9281676411628723,-1],"type":"VEC3"},{"bufferView":14,"componentType":5126,"count":104,"max":[0.7375367879867554,0.7350093722343445],"min":[0.062363069504499435,0.03125],"type":"VEC2"},{"bufferView":15,"componentType":5123,"count":156,"max":[103],"min":[0],"type":"SCALAR"},{"bufferView":16,"componentType":5126,"count":152,"max":[-0.08430218696594238,0.296875,-0.203125],"min":[-0.2583869993686676,-0.0744318887591362,-0.27812498807907104],"type":"VEC3"},{"bufferView":17,"componentType":5126,"count":152,"max":[0.9999833106994629,0.9970544576644897,1],"min":[-0.9999833106994629,-0.999957263469696,-1],"type":"VEC3"},{"bufferView":18,"componentType":5126,"count":152,"max":[0.6841468811035156,0.8143157362937927],"min":[0.00335312495008111,0],"type":"VEC2"},{"bufferView":19,"componentType":5123,"count":228,"max":[151],"min":[0],"type":"SCALAR"},{"bufferView":20,"componentType":5126,"count":22,"max":[0.01875000074505806,0.05009396746754646,-0.001662098104134202],"min":[-0.01875000074505806,-0.00009396908717462793,-0.07333790510892868],"type":"VEC3"},{"bufferView":21,"componentType":5126,"count":22,"max":[0,0.8191520571708679,0.5735764503479004],"min":[0,-0.8191520571708679,-0.5735764503479004],"type":"VEC3"},{"bufferView":22,"componentType":5126,"count":22,"max":[0.6156250238418579,0.5989593863487244],"min":[0.4124999940395355,0.21145939826965332],"type":"VEC2"},{"bufferView":23,"componentType":5123,"count":30,"max":[21],"min":[0],"type":"SCALAR"}],"materials":[{"pbrMetallicRoughness":{"metallicFactor":0,"roughnessFactor":1,"baseColorTexture":{"index":0}},"alphaMode":"MASK","alphaCutoff":0.05,"doubleSided":true}],"textures":[{"sampler":0,"source":0,"name":"texture"}],"samplers":[{"magFilter":9728,"minFilter":9728,"wrapS":33071,"wrapT":33071}],"images":[{"mimeType":"image/png","name":"plant_texture.png","uri":"plant_texture.png"}],"meshes":[{"primitives":[{"mode":4,"attributes":{"POSITION":0,"NORMAL":1,"TEXCOORD_0":2},"indices":3,"material":0}]},{"primitives":[{"mode":4,"attributes":{"POSITION":4,"NORMAL":5,"TEXCOORD_0":6},"indices":7,"material":0}]},{"primitives":[{"mode":4,"attributes":{"POSITION":8,"NORMAL":9,"TEXCOORD_0":10},"indices":11,"material":0}]},{"primitives":[{"mode":4,"attributes":{"POSITION":12,"NORMAL":13,"TEXCOORD_0":14},"indices":15,"material":0}]},{"primitives":[{"mode":4,"attributes":{"POSITION":16,"NORMAL":17,"TEXCOORD_0":18},"indices":19,"material":0}]},{"primitives":[{"mode":4,"attributes":{"POSITION":20,"NORMAL":21,"TEXCOORD_0":22},"indices":23,"material":0}]}]}