{"asset":{"version":"2.0","generator":"Blockbench 4.11.2 glTF exporter"},"scenes":[{"nodes":[8],"name":"blockbench_export"}],"scene":0,"nodes":[{"translation":[0.05,0.325,0.03125],"name":"cube","mesh":0},{"rotation":[0,0,-0.42261826174069944,0.9063077870366499],"translation":[-0.13085732845440373,0.013125547139010152,-3.469446951953616e-18],"name":"cube","mesh":1},{"rotation":[0.42261826174069944,-0.9063077870366499,-2.5877905075098294e-17,5.549534652183772e-17],"translation":[0.16526419763657407,-0.011771133015282292,-1.422473250300982e-17],"name":"cube","mesh":2},{"rotation":[0.29883623873011983,-0.6408563820557884,-0.29883623873011983,0.6408563820557885],"translation":[2.980232227667301e-9,-0.011771133015282292,-0.16526419838163214],"name":"cube","mesh":3},{"rotation":[-0.29883623873011983,0.6408563820557884,-0.29883623873011983,0.6408563820557885],"translation":[-7.450580569168253e-10,-0.011771133015282292,0.16526419838163214],"name":"cube","mesh":4},{"name":"pe","children":[0,1,2,3,4]},{"translation":[0,0.25000000000000006,0],"name":"cylinder","mesh":5},{"translation":[0,0.11249999999999999,0],"name":"Table","children":[5,6]},{"children":[7]}],"bufferViews":[{"buffer":0,"byteOffset":0,"byteLength":288,"target":34962,"byteStride":12},{"buffer":0,"byteOffset":288,"byteLength":288,"target":34962,"byteStride":12},{"buffer":0,"byteOffset":576,"byteLength":192,"target":34962,"byteStride":8},{"buffer":0,"byteOffset":768,"byteLength":72,"target":34963},{"buffer":0,"byteOffset":840,"byteLength":408,"target":34962,"byteStride":12},{"buffer":0,"byteOffset":1248,"byteLength":408,"target":34962,"byteStride":12},{"buffer":0,"byteOffset":1656,"byteLength":272,"target":34962,"byteStride":8},{"buffer":0,"byteOffset":1928,"byteLength":96,"target":34963},{"buffer":0,"byteOffset":2024,"byteLength":408,"target":34962,"byteStride":12},{"buffer":0,"byteOffset":2432,"byteLength":408,"target":34962,"byteStride":12},{"buffer":0,"byteOffset":2840,"byteLength":272,"target":34962,"byteStride":8},{"buffer":0,"byteOffset":3112,"byteLength":96,"target":34963},{"buffer":0,"byteOffset":3208,"byteLength":408,"target":34962,"byteStride":12},{"buffer":0,"byteOffset":3616,"byteLength":408,"target":34962,"byteStride":12},{"buffer":0,"byteOffset":4024,"byteLength":272,"target":34962,"byteStride":8},{"buffer":0,"byteOffset":4296,"byteLength":96,"target":34963},{"buffer":0,"byteOffset":4392,"byteLength":408,"target":34962,"byteStride":12},{"buffer":0,"byteOffset":4800,"byteLength":408,"target":34962,"byteStride":12},{"buffer":0,"byteOffset":5208,"byteLength":272,"target":34962,"byteStride":8},{"buffer":0,"byteOffset":5480,"byteLength":96,"target":34963},{"buffer":0,"byteOffset":5576,"byteLength":12672,"target":34962,"byteStride":12},{"buffer":0,"byteOffset":18248,"byteLength":12672,"target":34962,"byteStride":12},{"buffer":0,"byteOffset":30920,"byteLength":8448,"target":34962,"byteStride":8},{"buffer":0,"byteOffset":39368,"byteLength":2880,"target":34963}],"buffers":[{"byteLength":42248,"uri":"data:application/octet-stream;base64,"}],"accessors":[{"bufferView":0,"componentType":5126,"count":24,"max":[-0.01875000074505806,0.125,0],"min":[-0.08124999701976776,-0.1875,-0.0625],"type":"VEC3"},{"bufferView":1,"componentType":5126,"count":24,"max":[1,1,1],"min":[-1,-1,-1],"type":"VEC3"},{"bufferView":2,"componentType":5126,"count":24,"max":[0.515625,0.578125],"min":[0,0],"type":"VEC2"},{"bufferView":3,"componentType":5123,"count":36,"max":[23],"min":[0],"type":"SCALAR"},{"bufferView":4,"componentType":5126,"count":34,"max":[0.03125,0.15625,0.03125],"min":[-0.03125,-0.22377178072929382,-0.03125],"type":"VEC3"},{"bufferView":5,"componentType":5126,"count":34,"max":[1,1,1],"min":[-0.9994420409202576,-0.6418392658233643,-1],"type":"VEC3"},{"bufferView":6,"componentType":5126,"count":34,"max":[0.53125,0.579379677772522],"min":[0.109375,0],"type":"VEC2"},{"bufferView":7,"componentType":5123,"count":48,"max":[33],"min":[0],"type":"SCALAR"},{"bufferView":8,"componentType":5126,"count":34,"max":[0.03429434448480606,0.19861046969890594,0.03125],"min":[-0.02820565551519394,-0.18141131103038788,-0.03125],"type":"VEC3"},{"bufferView":9,"componentType":5126,"count":34,"max":[1,1,1],"min":[-0.9994420409202576,-0.6418392658233643,-1],"type":"VEC3"},{"bufferView":10,"componentType":5126,"count":34,"max":[0.53125,0.5168812274932861],"min":[0.0625,0.09375],"type":"VEC2"},{"bufferView":11,"componentType":5123,"count":48,"max":[33],"min":[0],"type":"SCALAR"},{"bufferView":12,"componentType":5126,"count":34,"max":[0.03429434448480606,0.19861046969890594,0.03125],"min":[-0.02820565551519394,-0.18141131103038788,-0.03125],"type":"VEC3"},{"bufferView":13,"componentType":5126,"count":34,"max":[1,1,1],"min":[-0.9994420409202576,-0.6418392658233643,-1],"type":"VEC3"},{"bufferView":14,"componentType":5126,"count":34,"max":[0.53125,0.59375],"min":[0,0.1875],"type":"VEC2"},{"bufferView":15,"componentType":5123,"count":48,"max":[33],"min":[0],"type":"SCALAR"},{"bufferView":16,"componentType":5126,"count":34,"max":[0.03429434448480606,0.19861046969890594,0.03125],"min":[-0.02820565551519394,-0.18141131103038788,-0.03125],"type":"VEC3"},{"bufferView":17,"componentType":5126,"count":34,"max":[1,1,1],"min":[-0.9994420409202576,-0.6418392658233643,-1],"type":"VEC3"},{"bufferView":18,"componentType":5126,"count":34,"max":[0.5,0.59375],"min":[0.03125,0.140625],"type":"VEC2"},{"bufferView":19,"componentType":5123,"count":48,"max":[33],"min":[0],"type":"SCALAR"},{"bufferView":20,"componentType":5126,"count":1056,"max":[0.5,0.3125,0.5],"min":[-0.5,0.1875,-0.5],"type":"VEC3"},{"bufferView":21,"componentType":5126,"count":1056,"max":[1,1,1],"min":[-1,-0.9992976188659668,-1],"type":"VEC3"},{"bufferView":22,"componentType":5126,"count":1056,"max":[0.5546875,0.53125],"min":[0.0006400409620255232,0],"type":"VEC2"},{"bufferView":23,"componentType":5123,"count":1440,"max":[1055],"min":[0],"type":"SCALAR"}],"materials":[{"pbrMetallicRoughness":{"metallicFactor":0,"roughnessFactor":1,"baseColorTexture":{"index":0}},"alphaMode":"MASK","alphaCutoff":0.05,"doubleSided":true}],"textures":[{"sampler":0,"source":0,"name":"roundTableTexture"}],"samplers":[{"magFilter":9728,"minFilter":9728,"wrapS":33071,"wrapT":33071}],"images":[{"mimeType":"image/png","uri":"data:image/png;base64,"}],"meshes":[{"primitives":[{"mode":4,"attributes":{"POSITION":0,"NORMAL":1,"TEXCOORD_0":2},"indices":3,"material":0}]},{"primitives":[{"mode":4,"attributes":{"POSITION":4,"NORMAL":5,"TEXCOORD_0":6},"indices":7,"material":0}]},{"primitives":[{"mode":4,"attributes":{"POSITION":8,"NORMAL":9,"TEXCOORD_0":10},"indices":11,"material":0}]},{"primitives":[{"mode":4,"attributes":{"POSITION":12,"NORMAL":13,"TEXCOORD_0":14},"indices":15,"material":0}]},{"primitives":[{"mode":4,"attributes":{"POSITION":16,"NORMAL":17,"TEXCOORD_0":18},"indices":19,"material":0}]},{"primitives":[{"mode":4,"attributes":{"POSITION":20,"NORMAL":21,"TEXCOORD_0":22},"indices":23,"material":0}]}]}