{"asset":{"version":"2.0","generator":"Blockbench 4.11.2 glTF exporter"},"scenes":[{"nodes":[17],"name":"blockbench_export"}],"scene":0,"nodes":[{"translation":[0,1.125,0],"name":"cuboid","mesh":0},{"translation":[-0.0077595762781207,-1.4349068585502123,0.10454545454545458],"name":"Back_Tv","children":[0]},{"rotation":[-0.7071067811865475,0,0,0.7071067811865476],"translation":[-0.25,1.11875,-0.26249999999999996],"name":"cylinder","mesh":1},{"rotation":[-0.7071067811865475,0,0,0.7071067811865476],"translation":[-0.20624999999999996,1.11875,-0.26249999999999996],"name":"cylinder","mesh":2},{"translation":[-0.0077595762781207,-1.4349068585502123,0.10454545454545458],"name":"frontbuttons","children":[2,3]},{"rotation":[0,0,0.3826834323650898,0.9238795325112867],"translation":[-0.26044040245396144,-0.3125876847260532,-0.08295454545454542],"name":"corner","mesh":3},{"rotation":[0,0,0.3826834323650898,0.9238795325112867],"translation":[0.37750377137019786,0.12848148313764168,-0.08295454545454542],"name":"corner","mesh":4},{"rotation":[0,0,-0.3826834323650898,0.9238795325112867],"translation":[-0.3488287501022798,0.08428730931348233,-0.08295454545454542],"name":"corner","mesh":5},{"rotation":[0,0,0.9238795325112867,0.38268343236508984],"translation":[0.33330959754603856,-0.2241993370777347,-0.08295454545454542],"name":"corner","mesh":6},{"translation":[-0.2577595762781207,-0.3099068585502123,-0.08295454545454542],"name":"tvBase","mesh":7},{"translation":[0.0234904237218793,-0.3411568585502123,-0.08295454545454542],"name":"corner","mesh":8},{"translation":[0.0234904237218793,0.15884314144978767,-0.08295454545454542],"name":"corner","mesh":9},{"rotation":[0,0,0.7071067811865475,0.7071067811865476],"translation":[0.36187877137019786,0.06598148313764168,-0.08295454545454542],"name":"corner","mesh":10},{"rotation":[0,0,0.7071067811865475,0.7071067811865476],"translation":[-0.33052292392643906,0.06598148313764146,-0.08295454545454542],"name":"corner","mesh":11},{"rotation":[0,0,-0.3826834323650898,0.9238795325112867],"translation":[0.042240423721879305,0.19009314144978767,0.032670454545454586],"name":"cube","mesh":12},{"rotation":[0,0,0.3826834323650898,0.9238795325112867],"translation":[-0.0077595762781207,0.12759314144978767,-0.02045454545454542],"name":"cube","mesh":13},{"translation":[0.0077595762781207,0.3099068585502123,-0.10454545454545458],"name":"tv","children":[1,4,5,6,7,8,9,10,11,12,13,14,15]},{"children":[16]}],"bufferViews":[{"buffer":0,"byteOffset":0,"byteLength":2016,"target":34962,"byteStride":12},{"buffer":0,"byteOffset":2016,"byteLength":2016,"target":34962,"byteStride":12},{"buffer":0,"byteOffset":4032,"byteLength":1344,"target":34962,"byteStride":8},{"buffer":0,"byteOffset":5376,"byteLength":504,"target":34963},{"buffer":0,"byteOffset":5880,"byteLength":1440,"target":34962,"byteStride":12},{"buffer":0,"byteOffset":7320,"byteLength":1440,"target":34962,"byteStride":12},{"buffer":0,"byteOffset":8760,"byteLength":960,"target":34962,"byteStride":8},{"buffer":0,"byteOffset":9720,"byteLength":288,"target":34963},{"buffer":0,"byteOffset":10008,"byteLength":1440,"target":34962,"byteStride":12},{"buffer":0,"byteOffset":11448,"byteLength":1440,"target":34962,"byteStride":12},{"buffer":0,"byteOffset":12888,"byteLength":960,"target":34962,"byteStride":8},{"buffer":0,"byteOffset":13848,"byteLength":288,"target":34963},{"buffer":0,"byteOffset":14136,"byteLength":288,"target":34962,"byteStride":12},{"buffer":0,"byteOffset":14424,"byteLength":288,"target":34962,"byteStride":12},{"buffer":0,"byteOffset":14712,"byteLength":192,"target":34962,"byteStride":8},{"buffer":0,"byteOffset":14904,"byteLength":72,"target":34963},{"buffer":0,"byteOffset":14976,"byteLength":288,"target":34962,"byteStride":12},{"buffer":0,"byteOffset":15264,"byteLength":288,"target":34962,"byteStride":12},{"buffer":0,"byteOffset":15552,"byteLength":192,"target":34962,"byteStride":8},{"buffer":0,"byteOffset":15744,"byteLength":72,"target":34963},{"buffer":0,"byteOffset":15816,"byteLength":288,"target":34962,"byteStride":12},{"buffer":0,"byteOffset":16104,"byteLength":288,"target":34962,"byteStride":12},{"buffer":0,"byteOffset":16392,"byteLength":192,"target":34962,"byteStride":8},{"buffer":0,"byteOffset":16584,"byteLength":72,"target":34963},{"buffer":0,"byteOffset":16656,"byteLength":288,"target":34962,"byteStride":12},{"buffer":0,"byteOffset":16944,"byteLength":288,"target":34962,"byteStride":12},{"buffer":0,"byteOffset":17232,"byteLength":192,"target":34962,"byteStride":8},{"buffer":0,"byteOffset":17424,"byteLength":72,"target":34963},{"buffer":0,"byteOffset":17496,"byteLength":288,"target":34962,"byteStride":12},{"buffer":0,"byteOffset":17784,"byteLength":288,"target":34962,"byteStride":12},{"buffer":0,"byteOffset":18072,"byteLength":192,"target":34962,"byteStride":8},{"buffer":0,"byteOffset":18264,"byteLength":72,"target":34963},{"buffer":0,"byteOffset":18336,"byteLength":288,"target":34962,"byteStride":12},{"buffer":0,"byteOffset":18624,"byteLength":288,"target":34962,"byteStride":12},{"buffer":0,"byteOffset":18912,"byteLength":192,"target":34962,"byteStride":8},{"buffer":0,"byteOffset":19104,"byteLength":72,"target":34963},{"buffer":0,"byteOffset":19176,"byteLength":288,"target":34962,"byteStride":12},{"buffer":0,"byteOffset":19464,"byteLength":288,"target":34962,"byteStride":12},{"buffer":0,"byteOffset":19752,"byteLength":192,"target":34962,"byteStride":8},{"buffer":0,"byteOffset":19944,"byteLength":72,"target":34963},{"buffer":0,"byteOffset":20016,"byteLength":288,"target":34962,"byteStride":12},{"buffer":0,"byteOffset":20304,"byteLength":288,"target":34962,"byteStride":12},{"buffer":0,"byteOffset":20592,"byteLength":192,"target":34962,"byteStride":8},{"buffer":0,"byteOffset":20784,"byteLength":72,"target":34963},{"buffer":0,"byteOffset":20856,"byteLength":288,"target":34962,"byteStride":12},{"buffer":0,"byteOffset":21144,"byteLength":288,"target":34962,"byteStride":12},{"buffer":0,"byteOffset":21432,"byteLength":192,"target":34962,"byteStride":8},{"buffer":0,"byteOffset":21624,"byteLength":72,"target":34963},{"buffer":0,"byteOffset":21696,"byteLength":288,"target":34962,"byteStride":12},{"buffer":0,"byteOffset":21984,"byteLength":288,"target":34962,"byteStride":12},{"buffer":0,"byteOffset":22272,"byteLength":192,"target":34962,"byteStride":8},{"buffer":0,"byteOffset":22464,"byteLength":72,"target":34963},{"buffer":0,"byteOffset":22536,"byteLength":288,"target":34962,"byteStride":12},{"buffer":0,"byteOffset":22824,"byteLength":288,"target":34962,"byteStride":12},{"buffer":0,"byteOffset":23112,"byteLength":192,"target":34962,"byteStride":8},{"buffer":0,"byteOffset":23304,"byteLength":72,"target":34963}],"buffers":[{"byteLength":23376,"uri":"data:application/octet-stream;base64,"}],"accessors":[{"bufferView":0,"componentType":5126,"count":168,"max":[0.3031249940395355,0.46875,0.25],"min":[-0.3031249940395355,0.03125,-0.125],"type":"VEC3"},{"bufferView":1,"componentType":5126,"count":168,"max":[1,1,1],"min":[-1,-1,-1],"type":"VEC3"},{"bufferView":2,"componentType":5126,"count":168,"max":[0.5073717832565308,0.578125],"min":[0,0],"type":"VEC2"},{"bufferView":3,"componentType":5123,"count":252,"max":[167],"min":[0],"type":"SCALAR"},{"bufferView":4,"componentType":5126,"count":120,"max":[0.02187499962747097,0.02187499962747097,0.02187499962747097],"min":[-0.02187499962747097,-0.015625,-0.02187499962747097],"type":"VEC3"},{"bufferView":5,"componentType":5126,"count":120,"max":[0.9438583850860596,1,0.9438583850860596],"min":[-0.9438583850860596,-1,-0.9438583850860596],"type":"VEC3"},{"bufferView":6,"componentType":5126,"count":120,"max":[0.6935937404632568,0.697638750076294],"min":[0.0034612498711794615,0.4375],"type":"VEC2"},{"bufferView":7,"componentType":5123,"count":144,"max":[119],"min":[0],"type":"SCALAR"},{"bufferView":8,"componentType":5126,"count":120,"max":[0.02187499962747097,0.02187499962747097,0.02187499962747097],"min":[-0.02187499962747097,-0.015625,-0.02187499962747097],"type":"VEC3"},{"bufferView":9,"componentType":5126,"count":120,"max":[0.9438583850860596,1,0.9438583850860596],"min":[-0.9438583850860596,-1,-0.9438583850860596],"type":"VEC3"},{"bufferView":10,"componentType":5126,"count":120,"max":[0.6935937404632568,0.682013750076294],"min":[0.12734374403953552,0.375],"type":"VEC2"},{"bufferView":11,"componentType":5123,"count":144,"max":[119],"min":[0],"type":"SCALAR"},{"bufferView":12,"componentType":5126,"count":24,"max":[0.0000625000029685907,0.125062495470047,0.23756250739097595],"min":[-0.0625625029206276,-0.0000625000029685907,-0.07506249845027924],"type":"VEC3"},{"bufferView":13,"componentType":5126,"count":24,"max":[1,1,1],"min":[-1,-1,-1],"type":"VEC3"},{"bufferView":14,"componentType":5126,"count":24,"max":[0.65625,0.703125],"min":[0,0.09375],"type":"VEC2"},{"bufferView":15,"componentType":5123,"count":36,"max":[23],"min":[0],"type":"SCALAR"},{"bufferView":16,"componentType":5126,"count":24,"max":[0.0000625000029685907,0.125062495470047,0.23756250739097595],"min":[-0.0625625029206276,-0.0000625000029685907,-0.07506249845027924],"type":"VEC3"},{"bufferView":17,"componentType":5126,"count":24,"max":[1,1,1],"min":[-1,-1,-1],"type":"VEC3"},{"bufferView":18,"componentType":5126,"count":24,"max":[0.609375,0.71875],"min":[0.0625,0.140625],"type":"VEC2"},{"bufferView":19,"componentType":5123,"count":36,"max":[23],"min":[0],"type":"SCALAR"},{"bufferView":20,"componentType":5126,"count":24,"max":[0.00000624999984211172,0.12500624358654022,0.23750625550746918],"min":[-0.06250625103712082,-0.00000624999984211172,-0.07500624656677246],"type":"VEC3"},{"bufferView":21,"componentType":5126,"count":24,"max":[1,1,1],"min":[-1,-1,-1],"type":"VEC3"},{"bufferView":22,"componentType":5126,"count":24,"max":[0.6875,0.71875],"min":[0.09375,0.1875],"type":"VEC2"},{"bufferView":23,"componentType":5123,"count":36,"max":[23],"min":[0],"type":"SCALAR"},{"bufferView":24,"componentType":5126,"count":24,"max":[0.0000625000029685907,0.125062495470047,0.23756250739097595],"min":[-0.0625625029206276,-0.0000625000029685907,-0.07506249845027924],"type":"VEC3"},{"bufferView":25,"componentType":5126,"count":24,"max":[1,1,1],"min":[-1,-1,-1],"type":"VEC3"},{"bufferView":26,"componentType":5126,"count":24,"max":[0.6875,0.71875],"min":[0.296875,0.3125],"type":"VEC2"},{"bufferView":27,"componentType":5123,"count":36,"max":[23],"min":[0],"type":"SCALAR"},{"bufferView":28,"componentType":5126,"count":24,"max":[0.5625,0.5,0.125],"min":[-0.0625,0,-0.0625],"type":"VEC3"},{"bufferView":29,"componentType":5126,"count":24,"max":[1,1,1],"min":[-1,-1,-1],"type":"VEC3"},{"bufferView":30,"componentType":5126,"count":24,"max":[0.625,0.625],"min":[0,0],"type":"VEC2"},{"bufferView":31,"componentType":5123,"count":36,"max":[23],"min":[0],"type":"SCALAR"},{"bufferView":32,"componentType":5126,"count":24,"max":[0.265625,0.0625,0.23749999701976776],"min":[-0.328125,-0.015625,-0.07500000298023224],"type":"VEC3"},{"bufferView":33,"componentType":5126,"count":24,"max":[1,1,1],"min":[-1,-1,-1],"type":"VEC3"},{"bufferView":34,"componentType":5126,"count":24,"max":[0.6875,0.5390625],"min":[0.171875,0],"type":"VEC2"},{"bufferView":35,"componentType":5123,"count":36,"max":[23],"min":[0],"type":"SCALAR"},{"bufferView":36,"componentType":5126,"count":24,"max":[0.265625,0.05624999850988388,0.23749999701976776],"min":[-0.328125,-0.015625,-0.07500000298023224],"type":"VEC3"},{"bufferView":37,"componentType":5126,"count":24,"max":[1,1,1],"min":[-1,-1,-1],"type":"VEC3"},{"bufferView":38,"componentType":5126,"count":24,"max":[0.703125,0.65625],"min":[0,0.234375],"type":"VEC2"},{"bufferView":39,"componentType":5123,"count":36,"max":[23],"min":[0],"type":"SCALAR"},{"bufferView":40,"componentType":5126,"count":24,"max":[0.0625,0.0625,0.23749999701976776],"min":[-0.3343749940395355,-0.015625,-0.07500000298023224],"type":"VEC3"},{"bufferView":41,"componentType":5126,"count":24,"max":[1,1,1],"min":[-1,-1,-1],"type":"VEC3"},{"bufferView":42,"componentType":5126,"count":24,"max":[0.640625,0.6484375],"min":[0,0.3125],"type":"VEC2"},{"bufferView":43,"componentType":5123,"count":36,"max":[23],"min":[0],"type":"SCALAR"},{"bufferView":44,"componentType":5126,"count":24,"max":[0.0625,0.0625,0.23749999701976776],"min":[-0.3343749940395355,-0.015625,-0.07500000298023224],"type":"VEC3"},{"bufferView":45,"componentType":5126,"count":24,"max":[1,1,1],"min":[-1,-1,-1],"type":"VEC3"},{"bufferView":46,"componentType":5126,"count":24,"max":[0.7109375,0.6171875],"min":[0.125,0.09375],"type":"VEC2"},{"bufferView":47,"componentType":5123,"count":36,"max":[23],"min":[0],"type":"SCALAR"},{"bufferView":48,"componentType":5126,"count":24,"max":[0.012500000186264515,0.375,0.00937500037252903],"min":[-0.012500000186264515,0,-0.00937500037252903],"type":"VEC3"},{"bufferView":49,"componentType":5126,"count":24,"max":[1,1,1],"min":[-1,-1,-1],"type":"VEC3"},{"bufferView":50,"componentType":5126,"count":24,"max":[0.6953125,0.734375],"min":[0.03125,0],"type":"VEC2"},{"bufferView":51,"componentType":5123,"count":36,"max":[23],"min":[0],"type":"SCALAR"},{"bufferView":52,"componentType":5126,"count":24,"max":[0.0625,0.375,0.0625],"min":[0.03750000149011612,0,0.04374999925494194],"type":"VEC3"},{"bufferView":53,"componentType":5126,"count":24,"max":[1,1,1],"min":[-1,-1,-1],"type":"VEC3"},{"bufferView":54,"componentType":5126,"count":24,"max":[0.6953125,0.75],"min":[0.546875,0.03125],"type":"VEC2"},{"bufferView":55,"componentType":5123,"count":36,"max":[23],"min":[0],"type":"SCALAR"}],"materials":[{"pbrMetallicRoughness":{"metallicFactor":0,"roughnessFactor":1,"baseColorTexture":{"index":0}},"alphaMode":"MASK","alphaCutoff":0.05,"doubleSided":true}],"textures":[{"sampler":0,"source":0,"name":"Tv_texture"}],"samplers":[{"magFilter":9728,"minFilter":9728,"wrapS":33071,"wrapT":33071}],"images":[{"mimeType":"image/png","uri":"data:image/png;base64,"}],"meshes":[{"primitives":[{"mode":4,"attributes":{"POSITION":0,"NORMAL":1,"TEXCOORD_0":2},"indices":3,"material":0}]},{"primitives":[{"mode":4,"attributes":{"POSITION":4,"NORMAL":5,"TEXCOORD_0":6},"indices":7,"material":0}]},{"primitives":[{"mode":4,"attributes":{"POSITION":8,"NORMAL":9,"TEXCOORD_0":10},"indices":11,"material":0}]},{"primitives":[{"mode":4,"attributes":{"POSITION":12,"NORMAL":13,"TEXCOORD_0":14},"indices":15,"material":0}]},{"primitives":[{"mode":4,"attributes":{"POSITION":16,"NORMAL":17,"TEXCOORD_0":18},"indices":19,"material":0}]},{"primitives":[{"mode":4,"attributes":{"POSITION":20,"NORMAL":21,"TEXCOORD_0":22},"indices":23,"material":0}]},{"primitives":[{"mode":4,"attributes":{"POSITION":24,"NORMAL":25,"TEXCOORD_0":26},"indices":27,"material":0}]},{"primitives":[{"mode":4,"attributes":{"POSITION":28,"NORMAL":29,"TEXCOORD_0":30},"indices":31,"material":0}]},{"primitives":[{"mode":4,"attributes":{"POSITION":32,"NORMAL":33,"TEXCOORD_0":34},"indices":35,"material":0}]},{"primitives":[{"mode":4,"attributes":{"POSITION":36,"NORMAL":37,"TEXCOORD_0":38},"indices":39,"material":0}]},{"primitives":[{"mode":4,"attributes":{"POSITION":40,"NORMAL":41,"TEXCOORD_0":42},"indices":43,"material":0}]},{"primitives":[{"mode":4,"attributes":{"POSITION":44,"NORMAL":45,"TEXCOORD_0":46},"indices":47,"material":0}]},{"primitives":[{"mode":4,"attributes":{"POSITION":48,"NORMAL":49,"TEXCOORD_0":50},"indices":51,"material":0}]},{"primitives":[{"mode":4,"attributes":{"POSITION":52,"NORMAL":53,"TEXCOORD_0":54},"indices":55,"material":0}]}]}